<svg width="48" height="48" viewBox="0 0 48 48" fill="none" xmlns="http://www.w3.org/2000/svg">
<rect width="48" height="48" fill="#323238"/>
<g clip-path="url(#clip0_61385:212)">
<path d="M33.1636 16.6802C31.5699 15.9614 29.8616 15.4302 28.0752 15.1281C28.0593 15.125 28.0428 15.127 28.0281 15.1337C28.0133 15.1404 28.001 15.1516 27.9929 15.1656C27.7741 15.5499 27.5304 16.051 27.3596 16.4468C25.4649 16.1637 23.5387 16.1637 21.6441 16.4468C21.4538 16.0081 21.2392 15.5804 21.0014 15.1656C20.9933 15.1514 20.9811 15.14 20.9664 15.1329C20.9517 15.1259 20.9352 15.1234 20.9191 15.126C19.1337 15.4281 17.4254 15.9593 15.8306 16.6791C15.8169 16.6849 15.8053 16.6947 15.7973 16.7072C12.5557 21.4729 11.6672 26.1208 12.1036 30.7104C12.1048 30.7216 12.1083 30.7325 12.1139 30.7423C12.1194 30.7522 12.1269 30.7608 12.1359 30.7677C14.028 32.1452 16.1383 33.1946 18.3785 33.8718C18.3941 33.8766 18.4108 33.8766 18.4264 33.8718C18.442 33.867 18.4558 33.8575 18.466 33.8447C18.9472 33.1989 19.3764 32.5166 19.7431 31.7999C19.7649 31.7583 19.7441 31.7083 19.7003 31.6916C19.0274 31.4382 18.3755 31.1324 17.7504 30.777C17.7392 30.7706 17.7297 30.7615 17.7228 30.7505C17.716 30.7396 17.712 30.7271 17.7111 30.7142C17.7103 30.7013 17.7127 30.6884 17.7181 30.6766C17.7235 30.6648 17.7317 30.6546 17.7421 30.6468C17.8733 30.5499 18.0045 30.4489 18.1295 30.3479C18.1408 30.3388 18.1543 30.333 18.1687 30.3312C18.183 30.3293 18.1976 30.3315 18.2108 30.3374C22.3013 32.1749 26.7315 32.1749 30.7741 30.3374C30.7873 30.3311 30.802 30.3287 30.8166 30.3303C30.8311 30.332 30.8449 30.3377 30.8564 30.3468C30.9814 30.4489 31.1116 30.5499 31.2439 30.6468C31.2543 30.6545 31.2626 30.6645 31.2682 30.6762C31.2738 30.6879 31.2764 30.7007 31.2757 30.7136C31.2751 30.7265 31.2713 30.7391 31.2647 30.7501C31.258 30.7612 31.2487 30.7704 31.2376 30.777C30.6147 31.1354 29.9668 31.4385 29.2866 31.6906C29.2762 31.6944 29.2666 31.7003 29.2587 31.7081C29.2507 31.7159 29.2445 31.7252 29.2405 31.7356C29.2365 31.7459 29.2347 31.757 29.2353 31.7681C29.2358 31.7792 29.2388 31.7901 29.2439 31.7999C29.6189 32.5156 30.048 33.1968 30.5199 33.8437C30.5297 33.857 30.5434 33.8669 30.5591 33.8721C30.5747 33.8773 30.5916 33.8776 30.6074 33.8729C32.8515 33.1975 34.9652 32.1476 36.8594 30.7677C36.8686 30.7612 36.8764 30.7528 36.8821 30.7431C36.8879 30.7334 36.8915 30.7226 36.8927 30.7114C37.4135 25.4052 36.0198 20.7947 33.1959 16.7093C33.189 16.696 33.1775 16.6857 33.1636 16.6802ZM20.3545 27.9156C19.1233 27.9156 18.1077 26.802 18.1077 25.4364C18.1077 24.0697 19.1035 22.9572 20.3545 22.9572C21.6149 22.9572 22.6211 24.0791 22.6013 25.4364C22.6013 26.8031 21.6055 27.9156 20.3545 27.9156V27.9156ZM28.6616 27.9156C27.4294 27.9156 26.4148 26.802 26.4148 25.4364C26.4148 24.0697 27.4096 22.9572 28.6616 22.9572C29.922 22.9572 30.9282 24.0791 30.9084 25.4364C30.9084 26.8031 29.9231 27.9156 28.6616 27.9156V27.9156Z" fill="white"/>
</g>
<defs>
<clipPath id="clip0_61385:212">
<rect width="25" height="25" fill="white" transform="translate(12 12)"/>
</clipPath>
</defs>
</svg>
